<?xml version="1.0" standalone="no"?>
<!DOCTYPE svg PUBLIC "-//W3C//DTD SVG 20010904//EN"
 "http://www.w3.org/TR/2001/REC-SVG-20010904/DTD/svg10.dtd">
<svg version="1.0" xmlns="http://www.w3.org/2000/svg"
 width="512.000000pt" height="512.000000pt" viewBox="0 0 512.000000 512.000000"
 preserveAspectRatio="xMidYMid meet">

<g transform="translate(0.000000,512.000000) scale(0.100000,-0.100000)"
fill="#000000" stroke="none">
<path d="M307 4839 c-99 -23 -212 -111 -258 -200 -49 -97 -60 -192 -33 -294
38 -150 163 -266 315 -295 77 -15 4392 -13 4461 1 155 33 274 144 312 294 21
79 20 140 -4 217 -37 119 -109 200 -226 255 l-59 28 -2235 2 c-1278 0 -2251
-3 -2273 -8z"/>
<path d="M283 2946 c-106 -34 -194 -113 -246 -224 -29 -61 -32 -76 -32 -162 0
-86 3 -101 32 -162 42 -90 110 -160 192 -201 l66 -32 2265 0 2265 0 66 32 c82
41 150 111 192 201 29 61 32 76 32 162 0 86 -3 101 -32 162 -42 90 -110 160
-192 201 l-66 32 -2250 2 c-1841 1 -2258 -1 -2292 -11z"/>
<path d="M305 1064 c-212 -52 -348 -278 -291 -489 32 -120 110 -214 224 -268
l67 -32 2255 0 2255 0 59 28 c117 55 189 136 226 255 24 77 25 138 4 217 -38
150 -163 267 -313 295 -35 7 -799 10 -2240 9 -1866 -1 -2195 -3 -2246 -15z"/>
</g>
</svg>
