<?xml version="1.0" standalone="no"?>
<!DOCTYPE svg PUBLIC "-//W3C//DTD SVG 20010904//EN"
 "http://www.w3.org/TR/2001/REC-SVG-20010904/DTD/svg10.dtd">
<svg version="1.0" xmlns="http://www.w3.org/2000/svg"
 width="512.000000pt" height="512.000000pt" viewBox="0 0 512.000000 512.000000"
 preserveAspectRatio="xMidYMid meet">

<g transform="translate(0.000000,512.000000) scale(0.100000,-0.100000)"
fill="#000000" stroke="none">
<path d="M2511 5106 c-48 -26 -50 -43 -51 -319 0 -211 3 -263 15 -287 18 -35
43 -50 85 -50 42 0 67 15 85 50 12 24 15 76 15 284 0 176 -4 263 -12 281 -22
48 -88 68 -137 41z"/>
<path d="M1279 4775 c-31 -17 -53 -65 -47 -99 3 -13 62 -123 133 -246 107
-185 133 -224 161 -237 64 -31 139 18 138 90 -1 46 -248 473 -286 493 -34 18
-66 17 -99 -1z"/>
<path d="M3741 4776 c-16 -9 -73 -96 -155 -237 -106 -183 -129 -231 -129 -262
1 -72 76 -116 141 -83 23 12 59 66 158 237 70 122 129 232 132 245 15 78 -76
139 -147 100z"/>
<path d="M2380 4144 c-617 -78 -1137 -500 -1330 -1081 -62 -187 -74 -267 -74
-503 0 -184 3 -229 22 -313 92 -416 316 -755 656 -995 164 -116 395 -213 616
-259 131 -27 470 -25 603 5 651 144 1127 628 1254 1277 27 137 24 464 -5 598
-142 644 -623 1121 -1262 1252 -73 16 -405 28 -480 19z"/>
<path d="M381 3876 c-47 -26 -63 -84 -37 -134 20 -38 447 -285 493 -286 44 0
86 33 97 76 17 67 -5 86 -254 229 -129 74 -235 129 -250 129 -14 -1 -36 -7
-49 -14z"/>
<path d="M4437 3759 c-176 -102 -231 -138 -243 -161 -33 -65 11 -140 83 -141
31 0 80 24 261 129 225 130 252 151 252 203 0 53 -49 101 -102 101 -13 0 -126
-59 -251 -131z"/>
<path d="M795 1654 c-16 -8 -122 -68 -233 -132 -205 -117 -232 -140 -232 -191
0 -53 49 -101 102 -101 13 0 125 58 248 129 245 140 268 161 256 225 -12 64
-84 100 -141 70z"/>
<path d="M4255 1663 c-32 -8 -64 -44 -71 -78 -12 -65 8 -83 247 -221 122 -70
232 -129 245 -132 54 -10 114 41 114 98 0 46 -28 75 -127 131 -54 32 -153 89
-221 128 -125 72 -152 83 -187 74z"/>
<path d="M1519 925 c-18 -10 -68 -86 -155 -236 -70 -122 -129 -232 -132 -245
-10 -54 41 -114 98 -114 52 0 74 27 192 232 158 274 152 261 138 302 -6 18
-19 41 -29 50 -26 24 -81 29 -112 11z"/>
<path d="M3515 931 c-35 -15 -58 -49 -58 -88 0 -31 24 -80 129 -261 130 -226
151 -252 204 -252 57 0 108 60 98 114 -3 13 -62 123 -132 245 -145 250 -166
272 -241 242z"/>
<path d="M2493 646 l-28 -24 -3 -268 c-3 -291 0 -314 49 -339 34 -18 60 -19
94 -3 51 23 55 45 55 323 0 271 -4 301 -49 325 -35 18 -88 12 -118 -14z"/>
</g>
</svg>
